# xmcd
#
# Track frame offsets:
#	150
#	12412
#	26625
#	40687
#	51749
#	63036
#	77398
#	89285
#	102897
#	120409
#	134846
#
# Disc length: 1987 seconds
# Revision: 0
# Processed by: cddbd v1.5.2PL0 Copyright (c) Steve Scherf et al.
# Submitted via: dBpowerAMP V12.0
#
DISCID=8907c10b
DTITLE=Newtown - Harlan Road
DYEAR=2016
DGENRE=Country
TTITLE0=All That I Can Take
TTITLE1=Can't Let Go
TTITLE2=Harlan Road
TTITLE3=The Heart You've Been Tending
TTITLE4=Hard Times
TTITLE5=The Feast Of The Gryphon
TTITLE6=The Crows And The Jakes
TTITLE7=Drifter Blues
TTITLE8=Wildfire
TTITLE9=Castaway
TTITLE10=Come Back To Me
EXTD=
EXTT0=
EXTT1=
EXTT2=
EXTT3=
EXTT4=
EXTT5=
EXTT6=
EXTT7=
EXTT8=
EXTT9=
EXTT10=
PLAYORDER=
